<?xml version="1.0" standalone="no"?>
<!DOCTYPE svg PUBLIC "-//W3C//DTD SVG 20010904//EN"
 "http://www.w3.org/TR/2001/REC-SVG-20010904/DTD/svg10.dtd">
<svg version="1.0" xmlns="http://www.w3.org/2000/svg"
 width="240.000000pt" height="282.000000pt" viewBox="0 0 240.000000 282.000000"
 preserveAspectRatio="xMidYMid meet">

<g transform="translate(0.000000,282.000000) scale(0.100000,-0.100000)"
fill="#000000" stroke="none">
<path d="M936 2811 c-15 -24 26 -32 155 -29 118 3 134 5 137 21 3 16 -9 17
-142 17 -80 0 -147 -4 -150 -9z"/>
<path d="M574 2796 c-18 -8 -34 -18 -37 -24 -10 -14 22 -285 33 -292 6 -4 34
1 63 11 44 15 53 22 55 44 6 49 -52 266 -73 271 -5 2 -24 -3 -41 -10z m47 -33
c13 -34 45 -157 53 -204 6 -36 6 -37 -41 -52 -56 -19 -58 -16 -67 62 -20 198
-20 196 5 208 35 17 38 16 50 -14z"/>
<path d="M686 2802 c-5 -8 1 -37 25 -124 5 -21 16 -38 23 -38 14 0 36 88 36
142 0 26 -3 28 -39 28 -22 0 -42 -4 -45 -8z"/>
<path d="M831 2793 c-27 -52 -72 -255 -61 -273 12 -20 109 -49 119 -36 5 6 14
56 20 111 22 191 23 174 -12 196 -40 24 -54 24 -66 2z m55 -15 c26 -12 26 -13
19 -88 -7 -81 -22 -191 -28 -196 -7 -7 -97 32 -97 42 0 19 52 218 61 237 11
20 11 20 45 5z"/>
<path d="M974 2753 c-17 -11 -23 -145 -7 -150 7 -3 25 22 42 55 17 33 36 62
43 64 7 3 51 3 98 1 96 -4 130 1 130 20 0 10 -36 14 -147 15 -82 1 -153 -1
-159 -5z"/>
<path d="M1100 2691 c0 -5 16 -23 35 -40 l36 -31 150 0 c130 0 150 2 156 17 4
10 -3 24 -21 40 -26 22 -34 23 -192 23 -90 0 -164 -4 -164 -9z"/>
<path d="M460 2670 c-13 -8 -11 -16 11 -57 34 -63 55 -64 51 -3 -2 26 -10 50
-20 58 -19 14 -23 15 -42 2z"/>
<path d="M1037 2638 c-34 -46 -107 -174 -107 -188 0 -20 84 -110 103 -110 11
0 26 19 43 58 35 76 74 174 74 184 0 11 -70 88 -81 88 -4 0 -19 -15 -32 -32z
m93 -64 c0 -25 -87 -214 -98 -214 -12 0 -82 77 -82 90 0 14 60 118 97 168 l25
33 29 -33 c16 -18 29 -38 29 -44z"/>
<path d="M341 2625 c-17 -20 -31 -41 -31 -48 0 -7 22 -61 48 -122 31 -73 53
-111 65 -113 20 -4 106 84 106 108 1 8 -27 59 -60 113 -41 66 -66 97 -79 97
-10 0 -32 -16 -49 -35z m116 -75 c28 -47 52 -92 52 -100 1 -24 -77 -96 -89
-84 -13 13 -90 189 -90 205 0 20 44 70 60 67 8 -2 38 -41 67 -88z"/>
<path d="M1179 2573 c-15 -40 -59 -166 -59 -170 0 -15 43 4 88 40 40 30 65 42
91 43 20 1 67 2 104 3 68 1 68 1 83 36 7 19 14 44 14 55 0 19 -6 20 -155 20
l-155 0 -11 -27z"/>
<path d="M693 2460 c-13 -5 -23 -16 -23 -25 0 -12 14 -15 74 -15 74 0 99 11
78 32 -15 15 -102 20 -129 8z"/>
<path d="M1290 2445 c0 -8 10 -35 22 -59 20 -41 26 -46 65 -52 51 -8 270 -1
279 9 9 9 -2 47 -26 85 l-20 32 -160 0 c-134 0 -160 -2 -160 -15z"/>
<path d="M296 2411 c-6 -10 39 -51 56 -51 5 0 8 12 6 28 -2 21 -9 28 -30 30
-14 2 -29 -1 -32 -7z"/>
<path d="M203 2398 c-5 -7 -17 -33 -27 -57 -20 -51 -17 -56 64 -139 58 -58 81
-74 96 -64 5 4 22 37 38 75 34 80 35 76 -71 147 -81 54 -86 56 -100 38z m83
-48 c107 -73 100 -61 74 -127 -13 -32 -27 -62 -32 -68 -9 -10 -69 44 -120 108
l-30 38 17 44 c9 25 20 45 25 45 4 0 34 -18 66 -40z"/>
<path d="M1205 2393 c-38 -20 -145 -102 -145 -111 0 -3 12 -36 28 -74 36 -90
49 -90 141 7 39 41 71 81 71 88 -1 19 -44 101 -55 104 -5 1 -23 -5 -40 -14z
m60 -48 l17 -44 -40 -48 c-61 -73 -101 -108 -110 -97 -9 10 -52 112 -52 124 0
3 21 22 48 40 26 19 49 36 52 39 10 11 45 30 57 30 6 1 19 -19 28 -44z"/>
<path d="M549 2373 c-32 -28 -62 -77 -52 -87 4 -3 68 -6 144 -6 l137 0 41 47
c58 68 49 74 -111 72 -122 -1 -131 -2 -159 -26z"/>
<path d="M1326 2279 c-57 -49 -120 -129 -110 -139 5 -5 41 -3 84 6 41 8 110
14 152 14 72 0 78 2 108 31 49 49 82 97 75 109 -4 6 -58 10 -140 10 l-134 0
-35 -31z"/>
<path d="M459 2250 c-13 -8 -59 -118 -59 -140 0 -19 7 -20 148 -20 l147 0 30
73 c16 39 30 77 30 82 0 10 -279 15 -296 5z"/>
<path d="M1404 2083 c14 -119 6 -110 104 -116 75 -4 161 -3 225 2 12 1 17 10
17 34 -1 47 -19 120 -33 129 -7 4 -81 8 -166 8 l-153 0 6 -57z"/>
<path d="M113 2089 c-5 -8 -13 -42 -16 -76 -8 -74 -5 -77 110 -119 95 -35 100
-30 105 90 l3 89 -29 8 c-64 17 -161 22 -173 8z m178 -24 c12 -4 13 -19 5 -90
-7 -62 -13 -85 -23 -85 -8 0 -48 14 -89 31 -81 34 -82 35 -67 123 l6 39 76 -6
c43 -3 84 -9 92 -12z"/>
<path d="M1202 2089 c-23 -4 -47 -11 -53 -14 -13 -9 -1 -176 15 -193 14 -14
79 3 156 41 44 22 45 23 43 67 -2 25 -5 60 -8 78 -6 31 -7 32 -58 31 -29 -1
-71 -5 -95 -10z m143 -75 l7 -60 -63 -27 c-35 -14 -76 -29 -90 -32 -26 -7 -27
-6 -35 72 -4 43 -8 83 -9 88 0 11 166 35 177 26 4 -3 10 -33 13 -67z"/>
<path d="M371 1997 c-6 -35 -11 -80 -11 -100 l0 -37 150 0 c171 0 154 -11 164
106 3 33 8 68 12 77 6 15 -8 17 -149 17 l-155 0 -11 -63z"/>
<path d="M1345 1905 c-44 -19 -80 -40 -80 -47 0 -6 36 -28 80 -47 76 -34 86
-36 189 -36 126 0 144 12 72 47 -25 12 -46 27 -46 33 0 6 21 21 46 33 71 35
54 47 -72 49 -103 1 -113 0 -189 -32z"/>
<path d="M365 1753 c12 -130 3 -123 152 -123 139 0 174 5 167 24 -3 7 -8 48
-12 91 l-7 80 -154 3 -153 3 7 -78z"/>
<path d="M186 1795 c-32 -14 -65 -30 -72 -36 -15 -12 -18 -75 -8 -128 6 -30 8
-31 63 -31 70 1 141 14 150 28 4 6 2 51 -4 99 -10 88 -10 88 -40 90 -17 2 -56
-8 -89 -22z m113 -72 c6 -48 10 -88 8 -89 -8 -8 -171 -24 -177 -17 -5 4 -10
35 -12 68 l-3 60 80 32 c44 18 83 33 86 33 4 0 11 -39 18 -87z"/>
<path d="M1159 1818 c-1 -2 -7 -43 -14 -93 -9 -66 -9 -93 -1 -102 14 -15 185
-38 197 -26 13 13 27 129 17 146 -14 26 -191 92 -199 75z m121 -51 l65 -32 -4
-55 c-2 -30 -6 -59 -8 -64 -6 -8 -113 -1 -161 11 -20 5 -23 10 -18 42 3 20 8
57 12 84 8 58 22 60 114 14z"/>
<path d="M1435 1738 c-9 -31 -21 -149 -15 -153 15 -9 313 -6 322 3 5 5 12 44
15 86 l6 76 -162 0 c-120 0 -163 -3 -166 -12z"/>
<path d="M400 1590 c0 -11 13 -50 29 -85 l30 -65 144 0 c79 0 146 2 149 6 3 3
-9 40 -27 82 l-32 77 -147 3 c-141 2 -146 2 -146 -18z"/>
<path d="M282 1534 c-18 -14 -52 -50 -77 -80 l-44 -55 16 -42 c24 -63 36 -73
70 -58 43 19 153 104 153 117 0 14 -40 115 -53 132 -14 18 -28 15 -65 -14z
m76 -47 c12 -29 22 -57 22 -63 0 -19 -133 -114 -158 -114 -6 0 -15 12 -20 28
-5 15 -13 34 -17 44 -4 11 13 37 61 87 36 39 72 71 78 71 7 0 22 -24 34 -53z"/>
<path d="M500 1405 c-7 -9 1 -25 31 -59 l41 -47 141 3 c82 2 142 7 143 13 2 6
-14 30 -36 54 l-39 45 -135 2 c-98 1 -138 -2 -146 -11z"/>
<path d="M400 1328 c-11 -18 -36 -73 -55 -121 -39 -96 -38 -102 15 -152 l32
-30 31 36 c18 20 51 72 74 116 l42 78 -51 53 c-27 28 -54 52 -59 52 -5 0 -18
-15 -29 -32z m93 -127 c-45 -78 -95 -151 -103 -151 -4 0 -20 16 -35 36 l-27
35 31 77 c17 43 41 93 52 112 l21 34 44 -48 43 -48 -26 -47z"/>
<path d="M1149 1295 c-11 -26 -18 -49 -14 -53 11 -11 95 -8 99 4 5 14 -35 86
-52 92 -7 2 -21 -16 -33 -43z"/>
<path d="M676 1267 c-21 -14 26 -37 75 -37 56 0 79 7 79 25 0 15 -134 26 -154
12z"/>
<path d="M1294 1207 c-111 -40 -209 -78 -218 -86 -20 -17 -23 -162 -3 -179 21
-18 434 -62 579 -62 153 0 161 4 157 67 -3 49 -15 63 -51 63 -25 0 -28 -3 -26
-27 l3 -28 -77 -3 c-78 -4 -78 -4 -78 22 0 14 -3 26 -7 27 -5 0 -39 3 -76 5
-65 5 -68 4 -62 -16 4 -12 2 -20 -5 -20 -22 0 -215 51 -223 59 -11 11 201 143
222 139 20 -4 27 -77 11 -108 -10 -19 -8 -20 59 -20 81 0 81 0 81 101 l0 70
78 -3 77 -3 3 -68 c2 -42 -2 -74 -9 -83 -9 -12 -5 -14 29 -14 23 0 42 5 45 13
9 26 8 187 -3 207 -10 19 -20 20 -158 19 l-147 0 -201 -72z m214 -53 c-3 -94
-4 -99 -25 -102 -21 -3 -23 0 -23 46 0 102 -15 104 -150 22 -105 -65 -129 -86
-114 -100 10 -9 211 -60 239 -60 9 0 19 9 22 20 4 13 12 19 27 16 17 -2 22
-11 24 -49 l3 -47 -38 0 c-42 0 -371 38 -390 45 -19 7 -17 149 1 168 8 8 77
36 153 62 76 27 165 59 198 71 33 12 64 19 68 15 4 -4 6 -52 5 -107z"/>
<path d="M1150 1109 c-19 -8 -22 -12 -10 -19 14 -9 44 2 55 20 8 12 -12 12
-45 -1z"/>
<path d="M2038 1275 c-3 -3 6 -33 20 -66 18 -40 32 -59 44 -59 24 0 23 26 -4
80 -21 41 -45 59 -60 45z"/>
<path d="M2175 1270 c-4 -6 3 -30 14 -53 11 -23 23 -61 27 -85 6 -36 10 -43
28 -40 18 3 21 9 18 43 -8 84 -64 172 -87 135z"/>
<path d="M1960 1228 c-24 -39 -37 -115 -22 -130 17 -17 32 1 32 36 0 18 6 40
14 51 12 17 13 16 20 -11 11 -42 25 -57 42 -43 18 15 18 22 -7 80 -26 59 -50
64 -79 17z m69 -24 c15 -32 19 -50 12 -57 -7 -7 -15 1 -26 26 -8 20 -19 37
-24 37 -11 0 -31 -47 -31 -75 0 -13 -4 -27 -10 -30 -25 -16 -1 94 28 128 22
25 25 22 51 -29z"/>
<path d="M2126 1242 c-3 -5 4 -26 14 -48 29 -56 26 -74 -10 -74 -27 0 -30 -3
-30 -30 0 -28 2 -30 28 -24 70 17 75 22 69 64 -9 68 -54 139 -71 112z m45 -56
c26 -57 25 -92 -3 -100 -38 -10 -58 -7 -58 9 0 10 10 15 30 15 25 0 30 4 30
23 0 12 -9 40 -20 62 -23 45 -24 49 -9 39 6 -3 20 -25 30 -48z"/>
<path d="M967 1232 c-6 -9 18 -81 32 -95 7 -7 21 0 46 24 19 19 35 37 35 40 0
8 -75 39 -95 39 -7 0 -16 -3 -18 -8z"/>
<path d="M567 1204 c-11 -35 -27 -175 -27 -230 0 -52 1 -55 35 -71 31 -15 37
-15 50 -2 14 14 75 231 75 266 0 15 -50 39 -100 49 -22 5 -29 2 -33 -12z m88
-24 c14 -5 25 -15 25 -22 0 -16 -37 -172 -51 -215 -11 -35 -33 -42 -62 -20
-16 11 -17 22 -7 112 17 166 18 168 45 161 13 -3 36 -11 50 -16z"/>
<path d="M796 1163 c-19 -67 -58 -274 -53 -280 4 -3 51 -6 104 -5 80 1 100 4
110 19 22 29 15 38 -57 73 -89 43 -93 63 -21 110 62 39 72 51 64 78 -5 20 -12
22 -73 22 -57 0 -70 -3 -74 -17z"/>
<path d="M918 1059 c-21 -11 -38 -24 -38 -29 0 -12 73 -50 95 -50 11 0 15 12
15 50 0 58 -11 62 -72 29z"/>
<path d="M2016 1003 c-9 -26 -16 -55 -16 -64 0 -43 92 -53 136 -16 39 34 23
54 -20 27 -37 -22 -45 -24 -64 -12 -10 7 -9 17 3 52 12 35 13 45 3 52 -22 13
-26 10 -42 -39z m30 5 c-19 -68 -19 -67 7 -79 19 -9 31 -8 55 5 42 22 52 20
23 -4 -28 -24 -93 -27 -111 -5 -10 12 -10 24 0 60 7 25 17 45 22 45 6 0 8 -10
4 -22z"/>
<path d="M2169 966 c16 -19 65 -22 59 -3 -3 6 -20 13 -38 15 -30 3 -32 2 -21
-12z"/>
<path d="M1002 893 c-6 -16 -14 -40 -18 -55 -5 -23 -3 -28 14 -28 25 0 92 28
92 38 0 9 -63 72 -72 72 -3 0 -10 -12 -16 -27z"/>
<path d="M1150 820 c0 -15 38 -88 49 -95 13 -8 39 33 47 73 l7 32 -52 0 c-29
0 -51 -5 -51 -10z"/>
<path d="M102 558 c-8 -8 -12 -55 -12 -145 0 -221 26 -253 212 -261 77 -3 112
-1 123 8 21 18 22 381 1 399 -9 7 -40 11 -78 9 l-63 -3 -5 -179 c-4 -131 -8
-180 -17 -184 -10 -3 -13 37 -13 176 0 155 -2 181 -16 186 -28 11 -120 6 -132
-6z"/>
<path d="M488 560 c-16 -10 -18 -34 -18 -270 0 -142 3 -265 6 -274 8 -20 126
-23 142 -3 6 7 12 41 14 76 l3 63 40 4 c63 6 94 24 121 70 24 41 26 52 22 143
-3 107 -13 132 -72 175 -23 17 -45 21 -134 24 -64 1 -114 -2 -124 -8z m172
-200 c0 -136 -2 -160 -15 -160 -13 0 -15 24 -15 160 0 136 2 160 15 160 13 0
15 -24 15 -160z"/>
<path d="M855 560 c-3 -5 -6 -96 -5 -201 0 -145 3 -195 12 -201 15 -9 99 -11
122 -2 14 5 16 33 16 204 0 171 -2 199 -16 204 -25 10 -122 7 -129 -4z"/>
<path d="M1048 559 c-16 -9 -18 -30 -18 -199 0 -215 -2 -210 84 -210 80 0 76
-12 76 210 0 171 -2 199 -16 204 -25 10 -107 6 -126 -5z"/>
<path d="M1324 560 c-41 -13 -80 -53 -95 -97 -18 -56 -7 -207 17 -240 41 -55
70 -68 147 -68 119 0 181 55 175 155 l-3 45 -75 0 -75 0 -3 -78 c-2 -56 -6
-77 -15 -74 -9 2 -13 49 -15 160 -2 133 0 157 12 157 11 0 16 -15 18 -62 l3
-63 75 0 75 0 -1 42 c-1 78 -54 122 -153 129 -31 2 -70 -1 -87 -6z"/>
<path d="M1694 559 c-18 -5 -46 -25 -63 -45 -29 -33 -32 -40 -29 -97 l3 -62
88 -3 c68 -2 87 -6 87 -17 0 -12 -18 -15 -90 -15 l-90 0 0 -80 c0 -77 1 -80
25 -86 14 -3 67 -4 118 -2 153 7 199 48 195 173 l-3 70 -88 5 c-48 3 -87 9
-87 15 0 6 39 12 87 15 l88 5 3 59 c2 41 -1 62 -10 67 -17 11 -195 10 -234 -2z"/>
<path d="M2063 559 c-41 -12 -83 -62 -83 -100 l0 -29 75 0 75 0 0 39 c0 42 16
63 31 40 10 -16 12 -70 3 -93 -4 -11 -19 -16 -46 -16 -79 0 -138 -54 -138
-126 0 -53 35 -99 88 -114 40 -11 210 -14 236 -4 14 5 16 29 16 166 l0 160
-33 33 c-50 50 -141 68 -224 44z m105 -275 c2 -61 -8 -92 -27 -80 -12 8 -16
128 -4 140 17 17 28 -5 31 -60z"/>
</g>
</svg>
