<?xml version="1.0" standalone="no"?>
<!DOCTYPE svg PUBLIC "-//W3C//DTD SVG 20010904//EN"
 "http://www.w3.org/TR/2001/REC-SVG-20010904/DTD/svg10.dtd">
<svg version="1.0" xmlns="http://www.w3.org/2000/svg"
 width="240.000000pt" height="240.000000pt" viewBox="0 0 240.000000 240.000000"
 preserveAspectRatio="xMidYMid meet">

<g transform="translate(0.000000,240.000000) scale(0.100000,-0.100000)"
fill="#000000" stroke="none">
<path d="M1610 2382 c-30 -14 -35 -23 -38 -55 -2 -21 -6 -37 -10 -35 -4 2 -23
12 -44 22 -33 17 -39 18 -75 4 l-38 -16 -5 -243 -5 -243 -40 -12 c-67 -21 -75
-18 -75 21 0 31 4 36 44 54 24 10 49 28 55 39 6 12 11 72 11 136 l0 116 -47
30 c-68 43 -84 45 -158 20 l-65 -22 0 -49 c0 -28 -4 -48 -9 -45 -5 3 -7 37 -5
75 l4 70 -42 29 c-24 16 -71 45 -105 65 l-61 37 -36 -17 -36 -17 0 -88 0 -88
33 13 c32 13 32 14 35 90 2 42 6 77 10 77 4 0 18 -7 30 -16 19 -13 22 -24 22
-90 0 -41 -3 -74 -6 -74 -3 0 -14 5 -25 10 -10 6 -19 7 -19 2 0 -5 12 -14 26
-21 20 -9 25 -17 20 -34 -3 -12 -6 -50 -6 -85 0 -61 -1 -63 -22 -57 l-23 6 23
-17 c20 -15 22 -24 22 -111 0 -90 -1 -94 -20 -88 -11 3 -20 2 -20 -3 0 -5 9
-12 20 -15 22 -6 29 -52 9 -59 -6 -2 -9 -17 -7 -34 l3 -31 378 93 377 93 45
-27 c25 -15 45 -29 45 -32 0 -3 -19 -11 -42 -17 -38 -10 -47 -9 -77 8 l-34 20
-114 -27 c-109 -27 -113 -29 -113 -55 0 -26 -105 -305 -121 -323 -27 -30 -14
21 40 156 59 149 70 188 52 188 -16 0 -28 -25 -85 -182 -32 -87 -63 -158 -70
-159 -10 -1 36 -15 108 -33 l28 -7 -27 23 -27 23 46 113 c26 61 51 124 57 139
8 22 12 24 20 13 30 -47 78 -294 66 -340 -4 -14 2 -20 24 -25 26 -6 51 -25 32
-25 -4 0 -71 -7 -148 -15 -77 -8 -147 -15 -155 -15 -12 0 -14 -10 -12 -45 l4
-45 106 3 107 2 25 45 c14 25 32 46 40 47 9 2 29 -22 53 -61 l37 -65 0 -215 0
-215 45 -31 c25 -17 45 -35 45 -40 0 -5 -21 -11 -47 -13 l-48 -3 45 -2 c44 -2
47 -4 78 -56 17 -30 32 -57 32 -60 0 -3 -22 -6 -48 -6 -48 0 -48 0 -74 53
l-27 52 0 -66 c-1 -74 -6 -79 -67 -79 -38 0 -39 2 -23 33 17 32 17 32 44 7
l25 -23 0 327 0 328 -32 54 c-18 30 -35 54 -39 54 -3 0 -11 -11 -17 -25 -7
-15 -8 -25 -2 -25 6 0 10 -7 10 -15 0 -8 -9 -15 -20 -15 -10 0 -24 -9 -30 -20
-10 -18 -8 -20 20 -20 30 0 30 -1 30 -52 -1 -100 -42 -338 -58 -338 -4 0 -6
85 -4 190 2 127 -1 190 -8 190 -6 0 -10 -71 -10 -211 0 -137 3 -208 10 -204 7
4 10 -57 10 -174 0 -114 -4 -181 -10 -181 -6 0 -10 55 -10 144 l0 145 -55 160
c-52 155 -53 162 -39 196 8 19 19 57 25 84 10 46 13 50 42 53 19 2 33 9 35 18
2 13 -9 14 -80 8 -46 -3 -91 -7 -100 -7 -11 -1 -21 -15 -28 -40 -9 -36 -4 -57
75 -282 47 -134 85 -247 85 -251 0 -5 -4 -8 -9 -8 -5 0 -22 37 -39 83 -16 45
-53 149 -82 230 -50 140 -54 147 -70 132 -20 -18 -21 -13 29 -111 12 -25 21
-61 21 -88 0 -27 12 -76 31 -123 71 -178 39 -265 -97 -265 -65 0 -153 39 -184
82 -24 34 -26 83 -4 104 13 14 13 16 1 16 -9 0 -21 2 -29 5 -9 3 -21 -15 -36
-56 l-24 -61 33 -34 c49 -51 142 -94 201 -94 66 0 109 20 162 76 26 26 46 43
46 38 0 -19 -96 -103 -140 -123 -259 -117 -509 251 -510 752 l0 77 -27 0 c-38
0 -73 -10 -73 -21 0 -5 6 -9 13 -9 8 0 28 -20 45 -44 l32 -44 0 -237 c0 -155
-3 -234 -10 -230 -6 4 -10 93 -10 233 l-1 227 -28 38 -28 37 -25 -32 c-31 -41
-42 -126 -32 -250 7 -95 6 -94 57 -73 12 5 17 2 17 -9 0 -12 -9 -16 -34 -16
-19 0 -37 -6 -39 -12 -3 -7 -6 14 -7 47 l-1 60 -19 -23 c-15 -18 -17 -29 -9
-55 5 -17 14 -33 19 -35 6 -2 10 -66 10 -163 0 -159 0 -159 23 -158 16 1 18 2
5 6 -16 4 -18 20 -18 159 l0 154 40 0 c48 0 51 -12 11 -60 -37 -46 -45 -73
-31 -115 11 -32 15 -35 51 -35 33 0 39 -3 39 -21 0 -12 4 -17 11 -13 8 4 10
-7 8 -39 -3 -33 0 -48 12 -55 11 -7 19 -5 27 9 16 26 36 24 55 -4 21 -32 7
-49 -34 -45 -24 2 -39 -3 -50 -16 -22 -26 -106 -33 -147 -12 -39 20 -51 54
-26 73 10 7 13 13 7 13 -20 0 -35 -29 -29 -55 12 -49 117 -73 180 -40 15 8 44
15 63 15 28 0 34 -3 29 -16 -16 -42 -16 -64 -2 -93 15 -29 20 -31 71 -31 l55
0 0 -43 c0 -37 4 -46 25 -55 14 -7 41 -12 60 -12 43 0 65 -9 65 -26 0 -11 19
-14 84 -14 47 0 88 -4 91 -10 3 -6 40 -10 82 -10 82 0 102 11 103 58 0 19 5
22 38 22 25 0 50 9 72 25 19 14 43 25 54 25 32 0 82 35 89 61 6 22 5 22 -16
-3 -42 -51 -144 -65 -205 -28 -37 23 -48 42 -36 68 4 9 6 22 5 28 0 6 6 17 14
24 12 10 15 10 15 -3 0 -13 6 -14 32 -6 18 5 45 9 60 9 16 0 28 2 28 3 0 2 -9
29 -19 60 -11 30 -17 58 -14 61 4 3 21 6 40 6 l33 0 0 -80 c0 -52 -4 -80 -11
-80 -8 0 -7 -5 1 -16 11 -12 11 -18 -2 -30 -21 -21 -105 -21 -126 0 -15 15
-12 16 33 18 l50 1 -43 4 c-23 2 -40 8 -37 13 3 6 -1 7 -9 4 -44 -17 -14 -60
49 -68 57 -8 109 12 114 44 3 24 16 40 34 40 5 0 5 -10 2 -21 -5 -15 -3 -20 6
-17 29 10 34 36 16 85 -25 71 -24 73 38 73 50 0 56 2 65 26 16 42 11 66 -25
124 -49 77 -48 82 25 74 l60 -7 0 48 c0 39 -6 54 -35 88 -34 39 -41 60 -30 90
5 10 18 13 55 9 l50 -5 0 46 c0 42 -4 49 -45 83 -37 30 -45 42 -45 70 0 31 3
34 38 39 63 11 63 11 60 62 -3 46 -4 48 -48 64 -40 15 -45 20 -48 50 -2 32 1
35 48 56 50 22 50 22 50 68 l0 46 -59 28 -59 28 38 39 c28 28 41 51 46 81 l6
41 -71 39 c-39 21 -71 41 -71 44 0 4 21 10 46 14 70 10 74 13 74 54 0 30 -5
40 -30 54 l-30 18 0 244 0 245 -52 27 c-29 15 -55 29 -58 30 -3 1 -21 -6 -40
-15z m95 -39 l35 -17 0 -228 c0 -209 -5 -251 -25 -218 -3 6 -19 10 -36 10
l-29 0 0 235 c0 144 4 235 10 235 5 0 25 -8 45 -17z m-695 -125 c0 -61 -2 -69
-17 -66 -15 3 -18 15 -20 68 -2 82 2 97 22 80 11 -9 15 -33 15 -82z m533 63
c24 -13 27 -20 27 -65 l0 -51 -35 60 c-34 60 -42 80 -27 73 4 -2 19 -10 35
-17z m-495 -74 c2 -57 1 -66 -13 -61 -20 8 -23 138 -2 132 7 -3 13 -29 15 -71z
m42 -24 c0 -47 -3 -64 -12 -61 -8 3 -14 29 -16 71 -2 57 -1 66 13 61 11 -5 15
-22 15 -71z m282 -27 c4 -6 8 -54 8 -107 0 -82 -3 -100 -21 -123 -28 -35 -76
-47 -111 -27 -16 9 -28 19 -28 22 0 3 18 13 40 22 l40 15 0 121 0 122 33 -17
c17 -9 35 -22 39 -28z m-150 -84 c-3 -41 -8 -62 -18 -66 -11 -4 -14 8 -14 58
0 43 4 66 13 69 20 7 22 1 19 -61z m-147 35 l40 -23 3 -171 2 -171 -35 -6
c-20 -4 -43 -10 -51 -13 -12 -4 -14 26 -14 201 0 113 3 206 8 206 4 0 25 -11
47 -23z m438 -84 c13 -21 38 -64 56 -95 l32 -57 -43 -11 c-24 -6 -51 -13 -60
-16 -16 -5 -18 5 -18 105 0 61 2 111 5 111 3 0 15 -17 28 -37z m-277 -144 c29
-18 34 -26 34 -59 0 -31 -4 -39 -22 -44 -55 -14 -58 -11 -58 59 0 36 3 65 6
65 4 0 22 -9 40 -21z m425 -149 l24 -20 -35 -30 c-42 -36 -56 -38 -64 -6 -3
13 -8 31 -11 38 -4 9 3 19 17 26 33 16 43 14 69 -8z m110 -77 c35 -20 49 -34
49 -50 0 -21 -1 -20 -55 9 -37 20 -55 36 -55 49 0 25 3 24 61 -8z m39 -91 c0
-5 -16 -23 -35 -42 l-36 -35 -44 24 c-25 13 -45 29 -45 34 0 6 14 26 31 43
l32 33 48 -25 c27 -13 49 -28 49 -32z m-100 -102 c-85 -23 -80 -24 -80 20 l0
40 53 -26 c49 -26 50 -28 27 -34z m105 -42 c37 -18 45 -27 45 -50 l0 -28 -37
16 c-21 9 -44 18 -50 21 -12 5 -19 63 -8 63 2 0 25 -10 50 -22z m14 -93 c4
-15 -64 -38 -91 -32 -13 4 -32 13 -42 20 -19 14 -18 15 19 34 37 19 41 19 75
4 20 -9 37 -20 39 -26z m-81 -79 c3 -25 1 -26 -47 -26 l-51 0 0 45 0 45 48
-19 c37 -15 48 -24 50 -45z m69 -72 c37 -15 43 -21 43 -46 0 -27 -3 -30 -25
-24 -63 16 -75 25 -75 56 0 35 1 35 57 14z m-12 -81 l30 -7 -39 -7 c-22 -3
-56 -2 -75 4 l-36 11 30 6 c30 7 36 7 90 -7z m-82 -24 c34 -9 37 -13 37 -44 0
-38 -11 -42 -79 -29 -28 6 -31 10 -31 45 0 44 8 47 73 28z m-413 -18 c0 -10
-7 -37 -15 -60 -14 -41 -13 -43 50 -226 37 -107 60 -187 55 -190 -6 -4 -12 0
-15 7 -3 7 -34 95 -69 195 l-64 182 17 56 c15 53 41 75 41 36z m480 -96 l34
-25 -35 0 c-19 0 -52 11 -74 25 l-40 24 41 1 c27 0 51 -8 74 -25z m-1219 8
c-7 -3 -9 -8 -4 -12 6 -3 13 -18 16 -32 5 -20 1 -31 -18 -49 l-25 -23 0 55 c0
54 7 66 35 66 6 0 4 -2 -4 -5z m1261 -53 c16 0 19 -6 16 -32 -3 -32 -4 -33
-48 -29 -57 4 -58 4 -52 42 4 28 7 31 35 25 16 -3 38 -6 49 -6z m-135 -56 c37
-14 42 -20 37 -38 -9 -31 -15 -33 -61 -28 -37 3 -43 7 -43 27 0 27 9 55 18 55
4 0 26 -7 49 -16z m68 -126 l40 -40 -50 5 c-41 4 -55 11 -77 38 -16 18 -28 37
-28 40 0 4 17 5 38 2 25 -4 49 -18 77 -45z m29 -54 c16 -6 22 -49 8 -57 -4 -3
-28 -3 -55 0 -40 5 -47 9 -47 28 0 12 3 25 7 28 8 9 66 9 87 1z m-1144 -129
c0 -18 -5 -25 -20 -25 -23 0 -24 3 -8 30 17 27 28 25 28 -5z m30 -16 c0 -6 -4
-7 -10 -4 -5 3 -10 11 -10 16 0 6 5 7 10 4 6 -3 10 -11 10 -16z m0 -39 c0 -5
-5 -10 -11 -10 -5 0 -7 5 -4 10 3 6 8 10 11 10 2 0 4 -4 4 -10z m1070 -54 c0
-37 -12 -46 -61 -46 -41 0 -49 3 -49 18 0 29 21 42 67 42 30 0 43 -4 43 -14z
m-122 -96 l21 -60 -25 0 c-23 0 -24 3 -24 60 0 33 2 60 4 60 2 0 13 -27 24
-60z m-754 -89 c10 -11 16 -30 14 -43 -2 -19 -10 -23 -47 -26 -39 -3 -43 -1
-36 15 4 10 12 30 17 46 12 32 28 34 52 8z m449 -61 c4 -17 0 -20 -29 -20 -38
0 -42 7 -16 26 24 19 39 17 45 -6z m-325 -16 c18 -5 22 -13 22 -50 l0 -44 -41
0 c-32 0 -40 3 -36 14 3 8 9 31 13 50 7 38 7 39 42 30z m176 -61 c11 -72 11
-73 -42 -73 l-49 0 10 55 c10 53 11 55 42 55 30 0 33 -3 39 -37z m182 -9 c23
-62 13 -79 -50 -79 -25 0 -46 3 -46 8 0 4 0 32 0 62 l0 55 39 0 c38 0 40 -2
57 -46z m134 19 c10 -9 -28 -23 -64 -23 -39 0 -39 0 -20 19 13 13 28 17 49 13
17 -2 32 -7 35 -9z"/>
<path d="M773 2318 c-21 -10 -23 -18 -23 -94 l0 -83 30 10 30 11 0 84 c0 46
-3 84 -7 83 -5 0 -18 -5 -30 -11z"/>
<path d="M708 2289 c-15 -8 -18 -24 -18 -89 0 -44 3 -80 8 -80 27 1 33 20 30
98 -3 73 -5 80 -20 71z"/>
<path d="M643 2258 c-21 -10 -23 -18 -23 -89 l0 -79 25 12 c24 11 25 16 25 90
0 43 -1 78 -2 77 -2 0 -13 -5 -25 -11z"/>
<path d="M853 2158 c-21 -10 -23 -18 -23 -95 0 -45 2 -83 4 -83 1 0 17 5 35
11 l31 11 0 84 c0 89 -3 93 -47 72z"/>
<path d="M773 2128 c-21 -10 -23 -18 -23 -95 0 -45 2 -83 5 -83 2 0 16 5 30
12 24 11 25 15 25 95 0 45 -3 83 -7 82 -5 0 -18 -5 -30 -11z"/>
<path d="M703 2103 c-9 -3 -13 -31 -13 -90 0 -74 2 -84 16 -79 9 3 18 6 20 6
2 0 4 38 4 85 0 47 -3 85 -7 84 -5 0 -14 -3 -20 -6z"/>
<path d="M643 2079 c-21 -8 -23 -14 -23 -89 0 -80 0 -81 23 -74 12 3 23 8 25
9 2 1 2 38 0 82 -3 79 -3 80 -25 72z"/>
<path d="M863 1966 l-33 -9 0 -94 0 -95 33 7 c17 4 33 8 35 10 1 1 1 45 0 97
l-3 94 -32 -10z"/>
<path d="M778 1938 c-28 -10 -28 -10 -28 -100 l0 -90 27 7 c16 4 29 8 31 10 1
1 1 43 0 92 l-3 90 -27 -9z"/>
<path d="M703 1913 c-9 -3 -13 -31 -13 -89 0 -77 2 -84 20 -84 19 0 20 7 20
90 0 50 -3 90 -7 89 -5 0 -14 -3 -20 -6z"/>
<path d="M638 1889 c-15 -8 -18 -24 -18 -89 0 -79 3 -86 34 -74 13 5 16 23 16
90 0 46 -3 84 -7 84 -5 0 -16 -5 -25 -11z"/>
<path d="M848 1753 c-15 -4 -18 -17 -18 -89 l0 -85 33 3 32 3 3 88 c3 93 2 94
-50 80z"/>
<path d="M768 1733 c-15 -4 -18 -17 -18 -90 0 -84 0 -85 23 -79 12 3 25 6 30
6 4 0 7 38 7 85 0 87 -1 89 -42 78z"/>
<path d="M697 1713 c-4 -3 -7 -42 -7 -85 0 -70 2 -79 18 -76 14 3 17 16 20 86
2 64 0 82 -11 82 -7 0 -17 -3 -20 -7z"/>
<path d="M585 1679 c-4 -18 -3 -35 4 -42 8 -8 11 0 11 31 0 50 -6 54 -15 11z"/>
<path d="M643 1702 c-22 -3 -23 -8 -23 -83 0 -73 2 -79 20 -79 27 0 31 14 28
96 -3 65 -4 69 -25 66z"/>
<path d="M1297 1692 c-9 -2 -24 -17 -32 -33 -9 -16 -19 -29 -23 -29 -4 0 -45
-9 -91 -19 -82 -19 -83 -19 -88 0 -3 10 -9 19 -13 19 -8 0 36 -150 47 -160 3
-3 3 6 -1 20 -4 14 -9 39 -12 55 l-6 30 78 17 c43 10 79 16 81 14 2 -2 -9 -37
-26 -77 l-29 -74 -41 0 c-23 0 -41 -3 -41 -7 0 -5 9 -8 19 -8 27 0 52 -11 46
-20 -2 -4 -21 -4 -42 -1 -38 6 -38 7 -70 96 -37 106 -45 122 -37 78 7 -39 -12
-45 -22 -7 -5 20 -12 24 -33 22 -21 -2 -27 -9 -29 -36 -3 -32 11 -62 29 -62 5
0 9 9 9 21 0 15 5 20 23 17 15 -2 21 -9 19 -20 -2 -10 2 -18 8 -18 5 0 10 -8
10 -18 0 -15 -7 -19 -36 -18 -19 1 -39 8 -44 16 -8 13 -10 13 -10 -1 0 -23 24
-41 37 -28 5 5 18 7 27 3 13 -5 17 -15 14 -40 -3 -30 -1 -34 19 -34 21 0 22 2
9 38 -7 20 -10 46 -8 57 3 14 10 5 23 -34 10 -29 16 -57 13 -62 -3 -5 10 -9
29 -9 19 0 48 -3 65 -6 l30 -6 61 157 c34 87 60 161 59 164 -2 4 -11 5 -21 3z"/>
<path d="M837 1553 c-4 -3 -7 -44 -7 -90 0 -87 1 -89 48 -77 21 6 22 12 22 90
l0 84 -28 0 c-16 0 -32 -3 -35 -7z"/>
<path d="M768 1543 c-15 -4 -18 -17 -18 -89 l0 -85 28 3 c27 3 27 3 30 91 3
90 2 91 -40 80z"/>
<path d="M690 1445 c0 -78 2 -85 20 -85 18 0 20 7 20 85 0 78 -2 85 -20 85
-18 0 -20 -7 -20 -85z"/>
<path d="M535 1489 c-6 -27 -2 -36 29 -68 l36 -36 0 62 c0 54 -2 61 -22 67
-35 9 -36 8 -43 -25z"/>
<path d="M620 1435 c0 -84 0 -85 25 -85 25 0 25 1 25 85 0 84 0 85 -25 85 -25
0 -25 -1 -25 -85z"/>
<path d="M963 1383 c9 -2 23 -2 30 0 6 3 -1 5 -18 5 -16 0 -22 -2 -12 -5z"/>
<path d="M969 1368 c-6 -15 -4 -86 2 -82 5 3 9 20 9 39 0 18 6 36 13 38 7 3 5
6 -5 6 -10 1 -18 0 -19 -1z"/>
<path d="M1019 1333 l4 -38 13 30 c8 20 21 32 40 36 24 6 21 7 -16 8 l-46 1 5
-37z"/>
<path d="M826 1353 c-4 -4 -23 -6 -42 -4 -29 2 -34 -1 -34 -18 0 -12 -4 -21
-10 -21 -5 0 -10 7 -10 15 0 8 -9 15 -20 15 -16 0 -20 -7 -20 -35 0 -19 -4
-35 -10 -35 -5 0 -10 14 -10 30 0 25 -4 30 -25 30 -23 0 -25 -3 -25 -49 0 -28
-4 -53 -10 -56 -6 -4 -10 12 -10 42 l0 48 -50 -3 c-29 -2 -50 -9 -50 -15 0 -7
-3 -22 -6 -34 -5 -17 2 -27 34 -48 l39 -26 84 52 c46 29 116 67 154 85 39 19
61 33 49 34 -11 0 -24 -3 -28 -7z"/>
<path d="M1140 1357 c0 -15 41 -27 58 -18 13 8 14 10 2 11 -8 0 -25 3 -37 6
-13 4 -23 4 -23 1z"/>
<path d="M857 1332 c-25 -10 -36 -20 -32 -29 3 -8 5 -18 5 -22 0 -8 45 -31 60
-31 6 0 10 20 10 44 0 26 5 46 13 49 8 4 7 5 -3 5 -8 0 -32 -7 -53 -16z"/>
<path d="M1037 1288 c-15 -34 -26 -62 -24 -64 1 -1 31 17 66 39 l64 41 -27 23
c-15 13 -33 23 -40 23 -7 0 -25 -28 -39 -62z"/>
<path d="M1208 1326 c-17 -12 -17 -15 0 -54 15 -36 20 -40 42 -35 14 3 26 7
27 8 2 1 -4 23 -13 48 -17 49 -27 55 -56 33z"/>
<path d="M1294 1311 c3 -9 8 -28 12 -43 12 -51 50 -30 39 21 -4 20 -14 30 -31
34 -19 3 -23 1 -20 -12z"/>
<path d="M747 1277 c-32 -17 -58 -35 -58 -39 1 -5 1 -19 1 -33 0 -19 5 -25 23
-25 20 0 22 4 19 39 -2 21 1 42 7 45 7 5 11 -7 11 -33 0 -39 2 -41 30 -41 28
0 30 2 30 40 0 29 -4 40 -15 40 -8 0 -15 5 -15 11 0 6 7 9 15 5 9 -3 15 0 15
9 0 19 5 20 -63 -18z"/>
<path d="M1095 1257 l-49 -32 34 -3 c34 -4 100 5 100 13 0 10 -24 55 -29 55
-3 0 -28 -15 -56 -33z"/>
<path d="M830 1219 c0 -24 3 -30 16 -25 9 3 24 6 35 6 27 0 23 25 -6 38 -39
18 -45 15 -45 -19z"/>
<path d="M643 1215 c-29 -20 -30 -45 -3 -45 22 0 34 19 28 45 -3 14 -5 14 -25
0z"/>
<path d="M1054 1203 c-38 -4 -40 -5 -36 -33 2 -17 10 -30 18 -30 23 0 40 -46
24 -65 -7 -8 -17 -15 -22 -15 -5 0 -16 -7 -24 -15 -14 -13 -13 -15 6 -15 23 0
76 -24 102 -48 16 -14 19 -11 40 34 13 29 23 78 26 122 l5 72 -49 -2 c-27 -1
-67 -3 -90 -5z"/>
<path d="M810 1176 l-95 -11 3 -37 c3 -34 5 -37 30 -33 69 11 192 15 192 6 0
-15 -32 -22 -129 -28 l-94 -6 6 -91 c3 -50 13 -126 22 -170 17 -84 73 -246 83
-246 4 0 14 13 24 29 15 28 15 30 -3 47 -10 9 -30 39 -44 67 -27 56 -33 135
-14 184 6 15 12 57 13 93 l1 65 50 0 c42 0 54 4 73 28 13 15 28 25 33 21 5 -3
9 2 9 10 0 12 -10 16 -38 16 -64 0 -85 40 -29 58 39 12 28 12 -93 -2z"/>
<path d="M514 1062 c-30 -24 -37 -60 -14 -72 28 -15 30 -13 30 28 0 21 5 43
12 50 18 18 -4 14 -28 -6z"/>
<path d="M955 1040 c-3 -5 1 -10 10 -10 9 0 13 5 10 10 -3 6 -8 10 -10 10 -2
0 -7 -4 -10 -10z"/>
<path d="M890 1017 c0 -23 32 -78 53 -92 l26 -16 -22 -36 c-11 -20 -23 -52
-26 -72 -4 -23 -12 -37 -24 -39 -14 -3 -17 4 -17 39 0 23 -3 39 -7 35 -12 -12
-3 -80 12 -89 18 -10 20 -58 3 -75 -9 -9 -7 -12 10 -12 12 0 22 -4 22 -10 0
-13 -6 -13 -31 1 -37 19 -45 2 -9 -19 l34 -21 23 21 c13 12 23 29 23 39 0 10
4 20 9 24 6 3 6 -8 0 -27 -20 -62 -19 -63 39 -61 61 3 110 28 137 71 14 22 10
20 -22 -11 -54 -52 -144 -67 -100 -17 6 8 0 4 -15 -9 -16 -14 -28 -20 -28 -15
1 15 34 49 63 64 15 7 27 17 27 22 0 5 -4 6 -10 3 -5 -3 -10 3 -10 15 0 13 5
20 13 17 6 -2 20 0 30 5 21 11 23 64 2 72 -8 3 -15 12 -15 21 0 19 4 19 43 -1
39 -21 61 -50 65 -89 2 -16 6 -32 8 -34 6 -7 5 66 -2 84 -10 25 -84 71 -175
107 -73 30 -87 39 -106 74 -13 21 -23 35 -23 31z m160 -151 c0 -7 -7 -19 -15
-26 -13 -11 -15 -8 -15 14 0 16 5 26 15 26 8 0 15 -6 15 -14z m40 -76 c0 -21
-5 -30 -16 -30 -13 0 -14 3 -5 14 6 7 9 21 5 30 -3 9 -1 16 5 16 6 0 11 -13
11 -30z m-61 -11 c-13 -26 -20 -21 -12 9 3 12 9 19 14 16 5 -3 4 -14 -2 -25z
m-22 -61 c-3 -7 -5 -2 -5 12 0 14 2 19 5 13 2 -7 2 -19 0 -25z"/>
<path d="M841 814 c0 -11 3 -14 6 -6 3 7 2 16 -1 19 -3 4 -6 -2 -5 -13z"/>
<path d="M840 775 c0 -8 4 -15 10 -15 5 0 7 7 4 15 -4 8 -8 15 -10 15 -2 0 -4
-7 -4 -15z"/>
<path d="M1131 783 c-1 -6 -4 -20 -7 -30 -5 -17 -5 -17 6 0 6 10 9 23 6 30 -3
9 -5 9 -5 0z"/>
<path d="M862 571 c-15 -26 -18 -41 -11 -54 15 -26 23 -21 47 28 27 55 26 52
3 58 -14 3 -24 -5 -39 -32z"/>
<path d="M639 438 c-5 -17 -4 -48 3 -48 4 0 8 11 8 25 0 20 -7 34 -11 23z"/>
<path d="M520 356 c0 -8 7 -17 16 -20 23 -9 24 -4 2 17 -14 13 -18 14 -18 3z"/>
<path d="M650 356 c0 -8 -8 -17 -17 -19 -15 -4 -15 -5 -2 -6 21 -1 44 25 29
34 -5 3 -10 -1 -10 -9z"/>
</g>
</svg>
